<svg width="675" height="577" viewBox="0 0 675 577" fill="none" xmlns="http://www.w3.org/2000/svg">
<g clip-path="url(#clip0_441_5)">
<path d="M588.952 425.305C589.286 429.211 586.238 432.568 582.357 432.568H263.193C259.322 432.568 256.277 429.228 256.596 425.329L279.469 146.173C279.753 142.705 282.621 140.037 286.067 140.037H558.531C561.967 140.037 564.832 142.692 565.126 146.149L588.952 425.305Z" fill="#1DCF65"/>
<path d="M614.429 498.138C614.828 503.01 611.022 507.187 606.185 507.187H240.192C235.365 507.187 231.562 503.03 231.944 498.166L258.219 163.775C258.561 159.427 262.151 156.078 266.467 156.078H578.814C583.121 156.078 586.707 159.413 587.061 163.749L614.429 498.138Z" fill="url(#paint0_linear_441_5)"/>
<path d="M415.981 401.146C368.344 401.146 329.589 354.132 329.589 296.344C329.589 293.334 332.004 290.893 334.984 290.893C337.965 290.893 340.379 293.333 340.379 296.344C340.379 348.121 374.295 390.245 415.983 390.245C457.671 390.245 491.587 348.121 491.587 296.344C491.587 293.334 494.001 290.893 496.982 290.893C499.962 290.893 502.377 293.333 502.377 296.344C502.375 354.132 463.619 401.146 415.981 401.146Z" fill="white"/>
<path d="M469.16 294.882C467.78 294.882 466.4 294.351 465.346 293.286C463.239 291.157 463.239 287.706 465.346 285.578L493.303 257.332C494.315 256.31 495.686 255.735 497.118 255.735C498.549 255.735 499.921 256.309 500.932 257.332L528.617 285.304C530.724 287.432 530.724 290.883 528.617 293.011C526.51 295.138 523.095 295.14 520.988 293.011L497.116 268.895L472.975 293.286C471.921 294.351 470.54 294.882 469.16 294.882Z" fill="white"/>
</g>
<path d="M409.136 167.739L404.93 185.285" stroke="#5ECE7B" stroke-width="2" stroke-miterlimit="10" stroke-linecap="round"/>
<path d="M398.26 174.409L415.806 178.615" stroke="#5ECE7B" stroke-width="2" stroke-miterlimit="10" stroke-linecap="round"/>
<path d="M206.108 30.3504L202.393 45.8485" stroke="#5ECE7B" stroke-width="2" stroke-miterlimit="10" stroke-linecap="round"/>
<path d="M196.502 36.2417L212 39.9564" stroke="#5ECE7B" stroke-width="2" stroke-miterlimit="10" stroke-linecap="round"/>
<path d="M489.538 113.172C489.049 115.211 487.967 117.059 486.428 118.482C484.889 119.906 482.963 120.841 480.892 121.17C478.822 121.499 476.7 121.206 474.796 120.329C472.892 119.452 471.29 118.03 470.194 116.243C469.098 114.456 468.556 112.384 468.638 110.289C468.72 108.194 469.42 106.17 470.652 104.474C471.884 102.777 473.591 101.484 475.557 100.758C477.524 100.031 479.662 99.9045 481.701 100.393C484.435 101.048 486.796 102.763 488.266 105.159C489.736 107.556 490.193 110.438 489.538 113.172Z" stroke="#5ECE7B" stroke-width="2" stroke-miterlimit="10"/>
<path d="M73.4704 244.144C72.9817 246.182 71.8995 248.03 70.3605 249.454C68.8216 250.878 66.895 251.813 64.8245 252.142C62.7539 252.47 60.6324 252.178 58.7282 251.301C56.8239 250.424 55.2225 249.002 54.1264 247.215C53.0304 245.428 52.4888 243.356 52.5704 241.261C52.6519 239.166 53.3528 237.142 54.5844 235.446C55.8161 233.749 57.5232 232.456 59.4898 231.729C61.4564 231.003 63.5943 230.876 65.633 231.365C68.3669 232.02 70.7285 233.735 72.1983 236.131C73.6681 238.527 74.1257 241.41 73.4704 244.144Z" stroke="#5ECE7B" stroke-width="2" stroke-miterlimit="10"/>
<path d="M474.13 327.656C473.893 328.643 473.369 329.537 472.624 330.226C471.879 330.916 470.946 331.368 469.943 331.527C468.941 331.686 467.914 331.545 466.992 331.12C466.07 330.695 465.295 330.007 464.764 329.142C464.234 328.277 463.972 327.274 464.011 326.259C464.05 325.245 464.39 324.266 464.986 323.444C465.582 322.623 466.408 321.997 467.36 321.645C468.312 321.293 469.347 321.232 470.334 321.468C471.658 321.785 472.802 322.615 473.514 323.776C474.225 324.936 474.447 326.332 474.13 327.656Z" stroke="#5ECE7B" stroke-width="2" stroke-miterlimit="10"/>
<path d="M119.53 211.158C119.293 212.144 118.769 213.039 118.024 213.728C117.278 214.417 116.346 214.87 115.343 215.029C114.341 215.188 113.314 215.046 112.392 214.622C111.47 214.197 110.695 213.509 110.164 212.643C109.634 211.778 109.372 210.775 109.411 209.761C109.45 208.747 109.79 207.767 110.386 206.946C110.982 206.124 111.808 205.498 112.76 205.147C113.712 204.795 114.747 204.733 115.734 204.97C117.058 205.287 118.202 206.117 118.913 207.277C119.625 208.438 119.847 209.834 119.53 211.158Z" stroke="#5ECE7B" stroke-width="2" stroke-miterlimit="10"/>
<path d="M191.182 384.779C260.955 401.503 318.443 411.195 319.585 406.428C320.728 401.661 265.092 384.24 195.319 367.516C125.547 350.793 68.0584 341.101 66.9158 345.868C65.7732 350.635 121.409 368.056 191.182 384.779Z" fill="#E2FDEE"/>
<path d="M381.591 139.268C381.033 139.134 380.497 138.918 380.002 138.627L240.809 57.0191C239.477 56.2383 238.51 54.9606 238.121 53.467C237.731 51.9733 237.951 50.3862 238.732 49.0546C239.513 47.7231 240.79 46.7562 242.284 46.3667C243.777 45.9772 245.365 46.197 246.696 46.9778L385.89 128.586C387.093 129.292 388.003 130.406 388.453 131.727C388.904 133.047 388.865 134.485 388.344 135.78C387.824 137.074 386.855 138.138 385.616 138.778C384.376 139.419 382.948 139.592 381.591 139.268Z" fill="#DFFCEA"/>
<path d="M245.01 46.7228C245.53 46.8481 246.029 47.0494 246.491 47.3203L385.688 128.929C386.309 129.286 386.854 129.762 387.29 130.33C387.726 130.898 388.046 131.547 388.23 132.239C388.414 132.932 388.459 133.653 388.362 134.363C388.266 135.073 388.029 135.757 387.667 136.375C387.305 136.992 386.824 137.532 386.251 137.963C385.679 138.394 385.027 138.708 384.333 138.885C383.639 139.063 382.917 139.101 382.208 138.998C381.5 138.894 380.818 138.652 380.204 138.284L241.005 56.6754C239.883 56.0181 239.035 54.9796 238.615 53.7493C238.195 52.519 238.231 51.1787 238.716 49.9725C239.201 48.7664 240.104 47.7747 241.259 47.1782C242.414 46.5816 243.745 46.4199 245.009 46.7225M245.196 45.9446C243.746 45.597 242.219 45.782 240.894 46.466C239.569 47.15 238.533 48.2873 237.977 49.6707C237.42 51.0541 237.379 52.5915 237.861 54.0026C238.343 55.4138 239.316 56.6047 240.603 57.3584L379.8 138.975C381.223 139.809 382.919 140.044 384.515 139.627C386.111 139.211 387.476 138.178 388.31 136.755C389.144 135.332 389.379 133.636 388.963 132.04C388.547 130.445 387.513 129.079 386.091 128.245L246.893 46.6341C246.364 46.3228 245.792 46.0919 245.196 45.9487" stroke="#5ECE7B" stroke-width="2"/>
<path d="M273.845 200.208C263.268 197.666 253.433 192.683 245.127 185.658C236.821 178.634 230.275 169.763 226.011 159.755C221.748 149.747 219.886 138.881 220.575 128.025C221.264 117.168 224.485 106.624 229.979 97.2355L250.237 62.6817L370.394 133.128L350.136 167.682C342.538 180.732 330.871 190.931 316.923 196.717C303.289 202.381 288.217 203.603 273.849 200.208L273.845 200.208Z" fill="white"/>
<path d="M220.525 143.823C223.385 153.508 227.572 162.749 232.967 171.285C239.281 181.155 249.047 191.292 259.025 194.806C282.512 203.069 286.48 203.207 291.538 202.599C296.596 201.991 321.489 197.557 324.53 193.231C327.571 188.904 220.525 143.823 220.525 143.823Z" fill="#F4FFF8"/>
<path d="M269.799 174.256C298.175 187.778 322.373 196.233 323.846 193.141C325.32 190.049 303.511 176.58 275.134 163.059C246.758 149.537 222.56 141.082 221.087 144.174C219.613 147.266 241.422 160.735 269.799 174.256Z" fill="#E8FCF1"/>
<path d="M250.379 63.2268L369.849 133.27L349.793 167.481C342.238 180.456 330.639 190.596 316.771 196.349C306.866 200.503 296.13 202.291 285.414 201.57C274.697 200.849 264.297 197.639 255.039 192.195C247.194 187.596 240.332 181.497 234.845 174.246C229.357 166.995 225.352 158.734 223.057 149.935C220.762 141.136 220.223 131.971 221.47 122.964C222.717 113.957 225.727 105.283 230.326 97.439L250.379 63.2268ZM250.095 62.1376L229.637 97.0302C220.242 113.055 217.597 132.156 222.285 150.13C226.973 168.105 238.609 183.481 254.634 192.876C270.659 202.271 289.76 204.915 307.734 200.228C325.709 195.54 341.085 183.904 350.48 167.879L370.939 132.986L250.095 62.1376Z" stroke="#5ECE7B" stroke-width="2"/>
<path d="M270.631 338.821C270.129 338.7 269.646 338.513 269.193 338.264L127.67 260.6C126.433 259.914 125.485 258.805 125.001 257.476C124.517 256.147 124.53 254.687 125.037 253.367C125.543 252.047 126.51 250.954 127.759 250.29C129.008 249.626 130.454 249.435 131.832 249.753C132.334 249.874 132.818 250.061 133.27 250.31L274.794 327.976C276.031 328.662 276.978 329.771 277.462 331.1C277.946 332.429 277.933 333.888 277.427 335.209C276.92 336.529 275.953 337.622 274.704 338.286C273.456 338.95 272.009 339.141 270.631 338.823" fill="#DFFCEA"/>
<path d="M270.631 338.821C270.129 338.7 269.646 338.513 269.193 338.264L127.67 260.6C126.433 259.914 125.485 258.805 125.001 257.476C124.517 256.147 124.53 254.687 125.037 253.367C125.543 252.047 126.51 250.954 127.759 250.29C129.008 249.626 130.454 249.435 131.832 249.753C132.334 249.874 132.818 250.061 133.27 250.31L274.794 327.976C276.031 328.662 276.978 329.771 277.462 331.1C277.946 332.429 277.933 333.888 277.427 335.209C276.92 336.529 275.953 337.622 274.704 338.286C273.456 338.95 272.009 339.141 270.631 338.823" stroke="#5ECE7B" stroke-width="2"/>
<path d="M142.896 255.852L162.101 220.699C166.476 212.654 172.395 205.551 179.518 199.797C186.642 194.042 194.83 189.749 203.615 187.163C212.4 184.577 221.609 183.749 230.714 184.726C239.819 185.704 248.642 188.467 256.678 192.858C264.714 197.25 271.805 203.183 277.545 210.318C283.285 217.453 287.562 225.65 290.13 234.44C292.698 243.23 293.508 252.44 292.512 261.544C291.516 270.647 288.735 279.464 284.327 287.491L265.114 322.642L142.896 255.852Z" fill="white"/>
<path d="M190.815 192.899C190.815 192.899 176.092 237.948 233.877 252.246C291.662 266.545 289.284 274.111 289.284 274.111C288.236 281.008 285.614 287.571 281.62 293.291C274.909 303.015 264.861 322.677 264.861 322.677L183.034 277.757L142.57 255.362L160.863 223.309C160.863 223.309 169.417 203.847 180.021 199.37C190.625 194.894 190.815 192.899 190.815 192.899Z" fill="#F4FFF8"/>
<path d="M249.315 189.474L222.177 232.148C222.177 232.148 222.984 234.295 224.445 233.922L262.984 198.864L249.315 189.474Z" fill="#F4FFF8"/>
<path d="M239.502 185.961L239.315 186.739C249.673 189.205 259.322 194.028 267.512 200.832C275.701 207.637 282.21 216.239 286.532 225.97C290.853 235.702 292.871 246.299 292.428 256.937C291.985 267.575 289.093 277.968 283.977 287.306L264.956 322.107L143.436 255.694L162.451 220.891C169.739 207.551 181.213 196.98 195.104 190.807C208.995 184.634 224.531 183.203 239.315 186.734L239.502 185.961ZM239.502 185.961C224.547 182.374 208.827 183.815 194.773 190.06C180.719 196.305 169.114 207.007 161.754 220.51L142.356 256.011L265.272 323.184L284.681 287.685C289.834 278.236 292.742 267.727 293.179 256.973C293.617 246.219 291.572 235.508 287.203 225.672C282.835 215.835 276.26 207.136 267.988 200.25C259.716 193.364 249.97 188.475 239.505 185.962" stroke="#5ECE7B" stroke-width="2"/>
<path d="M218.484 242.143C220.422 242.829 222.549 241.815 223.235 239.877C223.921 237.939 222.907 235.812 220.969 235.126C219.031 234.44 216.904 235.454 216.218 237.392C215.532 239.329 216.546 241.457 218.484 242.143Z" fill="#F4FFF8"/>
<path d="M172.005 466.073H9.35891C7.15797 466.073 5.18525 464.936 4.0819 463.031C2.97857 461.127 2.97341 458.85 4.06813 456.941L85.3911 315.098C86.4916 313.179 88.4694 312.033 90.6819 312.033C92.8944 312.033 94.8722 313.179 95.9727 315.098L177.296 456.941C178.39 458.85 178.385 461.127 177.282 463.031C176.179 464.936 174.206 466.073 172.005 466.073Z" fill="#F4FFF8"/>
<path d="M90.6817 314.066C89.9734 314.066 88.2119 314.265 87.1545 316.109L5.8315 457.952C4.77958 459.787 5.48751 461.403 5.84073 462.012C6.1939 462.622 7.24374 464.04 9.35871 464.04H172.005C174.119 464.04 175.169 462.622 175.522 462.012C175.876 461.402 176.584 459.786 175.532 457.952L94.2089 316.109C93.1514 314.265 91.3899 314.066 90.6817 314.066ZM90.6817 310C93.4278 310 96.1739 311.362 97.7361 314.087L179.059 455.929C182.167 461.35 178.253 468.106 172.005 468.106C172.005 468.106 172.004 468.106 172.005 468.106H9.35871C3.10992 468.106 -0.803725 461.35 2.30433 455.929L83.6273 314.087C85.1895 311.362 87.9356 310 90.6817 310Z" fill="#5ECE7B"/>
<path d="M88.4646 445.929C90.9144 445.929 92.9004 443.943 92.9004 441.494C92.9004 439.044 90.9144 437.058 88.4646 437.058C86.0148 437.058 84.0288 439.044 84.0288 441.494C84.0288 443.943 86.0148 445.929 88.4646 445.929Z" fill="#5ECE7B"/>
<path d="M92.9004 372.747C92.9004 370.297 90.9144 368.311 88.4646 368.311C86.0148 368.311 84.0288 370.297 84.0288 372.747L84.0288 423.752C84.0288 426.202 86.0148 428.188 88.4646 428.188C90.9144 428.188 92.9004 426.202 92.9004 423.752V372.747Z" fill="#5ECE7B"/>
<defs>
<linearGradient id="paint0_linear_441_5" x1="538.053" y1="458.049" x2="312.807" y2="195.104" gradientUnits="userSpaceOnUse">
<stop stop-color="#52D67A"/>
<stop offset="1" stop-color="#5AEE87"/>
</linearGradient>
<clipPath id="clip0_441_5">
<rect width="382.28" height="370.208" fill="white" transform="translate(231.918 140.037)"/>
</clipPath>
</defs>
</svg>
