<svg width="503" height="471" viewBox="0 0 503 471" fill="none" xmlns="http://www.w3.org/2000/svg">
<rect x="1.5" y="-30.5" width="500" height="500" stroke="#1DCF65" stroke-width="3"/>
<g clip-path="url(#clip0_447_2)">
<path d="M114.509 40.396H386.974C387.243 40.396 387.556 40.6159 387.59 41.018V41.019L411.416 320.175V320.176C411.456 320.644 411.099 320.927 410.799 320.927H91.6348C91.336 320.927 90.9803 320.647 91.0186 320.178L113.891 41.0229C113.924 40.6165 114.238 40.3961 114.509 40.396Z" fill="white" stroke="#1DCF65" stroke-width="12"/>
<path d="M94.9089 56.4369H407.257C408.388 56.4369 409.419 57.3247 409.523 58.596V58.597L436.891 392.987C437.009 394.43 435.891 395.546 434.627 395.546H68.6345C67.3695 395.546 66.2548 394.434 66.3679 392.995L92.6423 58.6039C92.7439 57.3257 93.7764 56.437 94.9089 56.4369Z" fill="white" stroke="#1DCF65" stroke-width="12"/>
<path d="M244.424 295.505C196.786 295.505 158.032 248.491 158.032 190.703C158.032 187.694 160.446 185.252 163.427 185.252C166.407 185.252 168.822 187.692 168.822 190.703C168.822 242.48 202.737 284.604 244.425 284.604C286.114 284.604 320.029 242.48 320.029 190.703C320.029 187.694 322.444 185.252 325.424 185.252C328.404 185.252 330.819 187.692 330.819 190.703C330.817 248.491 292.061 295.505 244.424 295.505Z" fill="#1DCF65"/>
<path d="M297.603 189.242C296.222 189.242 294.842 188.71 293.788 187.645C291.681 185.516 291.681 182.066 293.788 179.937L321.746 151.691C322.757 150.669 324.129 150.094 325.56 150.094C326.992 150.094 328.364 150.668 329.375 151.691L357.059 179.663C359.166 181.791 359.166 185.242 357.059 187.371C354.953 189.497 351.537 189.499 349.43 187.371L325.559 163.254L301.417 187.645C300.363 188.71 298.983 189.242 297.603 189.242Z" fill="#1DCF65"/>
</g>
<defs>
<clipPath id="clip0_447_2">
<rect width="382.28" height="370.208" fill="white" transform="translate(60.3601 34.396)"/>
</clipPath>
</defs>
</svg>
